<svg t="1658131695638" class="icon" viewBox="0 0 1024 1024" version="1.1" xmlns="http://www.w3.org/2000/svg" p-id="15630" width="200" height="200"><path d="M416.023088 639.662565 223.62515 639.662565c-17.520025 0-31.722492 14.202467-31.722492 31.722492l0 0.515746c0 17.520025 14.202467 31.722492 31.722492 31.722492l192.397938 0c17.520025 0 31.722492-14.202467 31.722492-31.722492l0-0.515746C447.74558 653.865032 433.543114 639.662565 416.023088 639.662565z" p-id="15631"></path><path d="M543.94455 511.741104 223.62515 511.741104c-17.520025 0-31.722492 14.202467-31.722492 31.722492l0 0.515746c0 17.520025 14.202467 31.722492 31.722492 31.722492l320.318376 0c17.520025 0 31.722492-14.202467 31.722492-31.722492l0-0.515746C575.667042 525.94357 561.463552 511.741104 543.94455 511.741104z" p-id="15632"></path><path d="M895.469672 191.942567 127.937834 191.942567c-35.322483 0-63.956637 28.634154-63.956637 63.956637l0 575.649646c0 35.322483 28.634154 63.956637 63.956637 63.956637l767.531837 0c35.322483 0 63.956637-28.634154 63.956637-63.956637L959.426309 255.899204C959.426309 220.576721 930.792155 191.942567 895.469672 191.942567zM895.469672 479.502865l0 224.12043 0 96.203062c0 17.520025-14.202467 31.722492-31.722492 31.722492L159.66442 831.54885c-17.520025 0-31.722492-14.202467-31.722492-31.722492l0-96.203062L127.941927 479.502865l0-31.722492 31.722492 0 704.08276 0 31.722492 0L895.469672 479.502865zM895.469672 319.859935l0 32.238238 0 31.722492-31.722492 0L159.66442 383.820666l-31.722492 0 0-31.722492 0-32.238238 0-32.238238c0-17.520025 14.202467-31.722492 31.722492-31.722492l704.08276 0c17.520025 0 31.722492 14.202467 31.722492 31.722492L895.469672 319.859935z" p-id="15633"></path><path d="M799.786449 511.741104 671.350265 511.741104c-17.520025 0-31.722492 14.202467-31.722492 31.722492l0 128.437208c0 17.520025 14.202467 31.722492 31.722492 31.722492l128.437208 0c17.520025 0 31.722492-14.202467 31.722492-31.722492L831.509964 543.463596C831.508941 525.94357 817.306474 511.741104 799.786449 511.741104zM767.54821 639.662565l-63.960731 0 0-63.960731 63.960731 0L767.54821 639.662565z" p-id="15634"></path></svg>