<svg t="1658133296960" class="icon" viewBox="0 0 1024 1024" version="1.1" xmlns="http://www.w3.org/2000/svg" p-id="17569" width="200" height="200"><path d="M511.82655 556.277436c-135.928832 0-246.477624-110.546745-246.477624-246.477624S375.896694 63.322188 511.82655 63.322188c135.930879 0 246.477624 110.546745 246.477624 246.477624S647.757428 556.277436 511.82655 556.277436zM511.82655 108.135836c-111.202685 0-201.662953 90.481757-201.662953 201.662953s90.460268 201.662953 201.662953 201.662953c111.159706 0 201.662953-90.481757 201.662953-201.662953S622.986255 108.135836 511.82655 108.135836z" p-id="17570"></path><path d="M870.340853 959.603341 153.314293 959.603341c-37.068244 0-67.220984-30.15274-67.220984-67.220984 0-3.061732 0.656963-75.535347 54.923914-147.879002 31.596625-42.143842 74.835406-75.578326 128.576377-99.474572 65.559135-29.143761 147.091056-43.937698 242.23295-43.937698 95.14394 0 176.630836 14.792914 242.276952 43.937698 53.741995 23.896246 96.980775 57.33073 128.577401 99.474572 54.266951 72.342632 54.880935 144.81727 54.880935 147.879002C937.561837 929.4506 907.409097 959.603341 870.340853 959.603341zM511.82655 645.905756c-156.280346 0-271.553743 42.712801-333.436138 123.501802-46.38954 60.567447-47.439452 122.449843-47.483454 123.062803 0 12.254092 10.021238 22.320355 22.406313 22.320355l717.02656 0c12.341073 0 22.407336-10.066263 22.407336-22.407336 0-0.524956-1.050935-62.406329-47.440475-122.974799C783.33629 688.618557 668.063917 645.905756 511.82655 645.905756z" p-id="17571"></path></svg>